<svg width="35" height="20" viewBox="0 0 35 20" fill="none" xmlns="http://www.w3.org/2000/svg">
<path d="M21.8533 2.22346L19.844 4.46036L18.3694 6.10334L18.3671 6.10564L17.4296 7.1501L14.8286 10.0447L13.4792 11.5488L11.4334 13.8267L6.93912 8.82042L5.95607 7.72356L8.573 4.80854C8.70722 4.65609 8.85972 4.56962 8.99853 4.52179C9.13732 4.47174 9.26478 4.46036 9.35126 4.46036C9.49459 4.46036 9.74037 4.48994 9.97247 4.6629C9.99294 4.67883 10.0112 4.69473 10.0248 4.70614C10.0544 4.73118 10.084 4.75846 10.1136 4.79031C10.1249 4.80172 10.1295 4.80854 10.1295 4.80854L13.7317 8.82269L16.3328 5.9281L13.0104 2.22574C12.0797 1.18809 10.7462 0.591889 9.35353 0.591889H9.35126C7.95857 0.591889 6.62507 1.18809 5.69436 2.22346L1.73483 6.63355L0.756348 7.72356L4.49738 11.8925L11.4334 19.618L17.4296 12.9392L23.4257 19.618L34.1051 7.72356L29.1671 2.22346C28.2363 1.18579 26.9028 0.591889 25.5102 0.591889C24.1153 0.591889 22.784 1.18579 21.8533 2.22346ZM20.0283 10.0447L20.9226 9.04798L20.9271 9.04568L24.7319 4.80854C25.0027 4.50589 25.335 4.46036 25.5102 4.46036C25.6513 4.46036 25.897 4.48994 26.1314 4.6629C26.1724 4.697 26.2065 4.7289 26.2315 4.75162C26.2406 4.75846 26.2498 4.76757 26.2566 4.77668C26.2771 4.79715 26.2884 4.80854 26.2884 4.80854L28.9053 7.72356L23.4257 13.8267L20.0283 10.0447Z" fill="#8F3985"/>
<mask id="mask0_769_32" style="mask-type:luminance" maskUnits="userSpaceOnUse" x="0" y="0" width="35" height="20">
<path d="M0 4.47035e-07H35V20H0V4.47035e-07Z" fill="white"/>
</mask>
<g mask="url(#mask0_769_32)">
<mask id="mask1_769_32" style="mask-type:luminance" maskUnits="userSpaceOnUse" x="17" y="10" width="5" height="6">
<path d="M17.427 10.0445H21.9652V15.1871H17.427V10.0445Z" fill="white"/>
</mask>
<g mask="url(#mask1_769_32)">
<path d="M17.428 12.9391L20.0267 10.0445L21.9662 12.2036L19.4463 15.1871L17.428 12.9391Z" fill="#8F3985"/>
</g>
</g>
<mask id="mask2_769_32" style="mask-type:luminance" maskUnits="userSpaceOnUse" x="0" y="0" width="35" height="20">
<path d="M0.883545 0.650591H34.1914V19.7718H0.883545V0.650591Z" fill="white"/>
</mask>
<g mask="url(#mask2_769_32)">
<mask id="mask3_769_32" style="mask-type:luminance" maskUnits="userSpaceOnUse" x="18" y="3" width="9" height="7">
<path d="M18.3652 3.50706H26.1295V9.04773H18.3652V3.50706Z" fill="white"/>
</mask>
<g mask="url(#mask3_769_32)">
<path d="M26.1305 4.6629C25.8961 4.48996 25.6504 4.46038 25.5093 4.46038C25.3341 4.46038 25.0018 4.50586 24.731 4.80851L20.9262 9.04568L20.9217 9.04797L18.3662 6.10561L18.3685 6.10334C22.2666 1.76607 25.4092 4.03027 26.1305 4.6629Z" fill="#8F3985"/>
</g>
</g>
</svg>
